<mxfile host="Electron" modified="2024-12-18T09:52:03.064Z" agent="Mozilla/5.0 (Macintosh; Intel Mac OS X 10_15_7) AppleWebKit/537.36 (KHTML, like Gecko) draw.io/22.1.2 Chrome/114.0.5735.289 Electron/25.9.4 Safari/537.36" etag="iOtz_EGBvGrC_fot1BNH" version="22.1.2" type="device">
  <diagram name="Page-1" id="ZrgcyHpn9vTvH2ucEPrN">
    <mxGraphModel dx="1085" dy="542" grid="1" gridSize="10" guides="1" tooltips="1" connect="1" arrows="1" fold="1" page="1" pageScale="1" pageWidth="850" pageHeight="1100" math="0" shadow="0">
      <root>
        <mxCell id="0" />
        <mxCell id="1" parent="0" />
        <mxCell id="0aNdDIvpK2dEDVgOdDhu-1" value="" style="endArrow=none;html=1;rounded=0;" edge="1" parent="1">
          <mxGeometry width="50" height="50" relative="1" as="geometry">
            <mxPoint x="400" y="610" as="sourcePoint" />
            <mxPoint x="400" y="98" as="targetPoint" />
          </mxGeometry>
        </mxCell>
        <mxCell id="0aNdDIvpK2dEDVgOdDhu-2" value="" style="endArrow=none;html=1;rounded=0;" edge="1" parent="1">
          <mxGeometry width="50" height="50" relative="1" as="geometry">
            <mxPoint x="100" y="400" as="sourcePoint" />
            <mxPoint x="720" y="400" as="targetPoint" />
          </mxGeometry>
        </mxCell>
        <mxCell id="0aNdDIvpK2dEDVgOdDhu-3" value="Силни страни&amp;nbsp;" style="text;strokeColor=none;fillColor=none;html=1;fontSize=24;fontStyle=1;verticalAlign=middle;align=center;" vertex="1" parent="1">
          <mxGeometry x="70" y="110" width="130" height="40" as="geometry" />
        </mxCell>
        <mxCell id="0aNdDIvpK2dEDVgOdDhu-4" value="Слаби страни&amp;nbsp;" style="text;strokeColor=none;fillColor=none;html=1;fontSize=24;fontStyle=1;verticalAlign=middle;align=center;" vertex="1" parent="1">
          <mxGeometry x="590" y="100" width="130" height="40" as="geometry" />
        </mxCell>
        <mxCell id="0aNdDIvpK2dEDVgOdDhu-5" value="Възможности" style="text;strokeColor=none;fillColor=none;html=1;fontSize=24;fontStyle=1;verticalAlign=middle;align=center;" vertex="1" parent="1">
          <mxGeometry x="70" y="410" width="130" height="40" as="geometry" />
        </mxCell>
        <mxCell id="0aNdDIvpK2dEDVgOdDhu-6" value="Заплахи" style="text;strokeColor=none;fillColor=none;html=1;fontSize=24;fontStyle=1;verticalAlign=middle;align=center;" vertex="1" parent="1">
          <mxGeometry x="590" y="420" width="130" height="40" as="geometry" />
        </mxCell>
        <mxCell id="0aNdDIvpK2dEDVgOdDhu-7" value="&lt;font style=&quot;font-size: 18px;&quot;&gt;Сайт за летално елиминиране на неудобни за нас индивиди от всякакъв характер&lt;/font&gt;" style="text;strokeColor=none;fillColor=none;html=1;fontSize=24;fontStyle=1;verticalAlign=middle;align=center;" vertex="1" parent="1">
          <mxGeometry x="380" y="20" width="100" height="40" as="geometry" />
        </mxCell>
        <mxCell id="0aNdDIvpK2dEDVgOdDhu-8" value="&lt;ul&gt;&lt;li&gt;&lt;font style=&quot;font-size: 14px;&quot;&gt;Отстраняване на неприятни за потребителят хора&amp;nbsp;&lt;/font&gt;&lt;/li&gt;&lt;li&gt;&lt;span style=&quot;font-size: 14px;&quot;&gt;Лесен за работа интерфейс&amp;nbsp;&lt;/span&gt;&lt;/li&gt;&lt;li&gt;&lt;span style=&quot;font-size: 14px;&quot;&gt;поверителност на потребителите&amp;nbsp;&lt;/span&gt;&lt;/li&gt;&lt;li&gt;&lt;span style=&quot;font-size: 14px;&quot;&gt;голям интерес от потребители, които са част от &quot;Висшето общество&quot;&lt;/span&gt;&lt;/li&gt;&lt;/ul&gt;" style="text;strokeColor=none;fillColor=none;html=1;whiteSpace=wrap;verticalAlign=middle;overflow=hidden;" vertex="1" parent="1">
          <mxGeometry x="60" y="160" width="330" height="220" as="geometry" />
        </mxCell>
        <mxCell id="0aNdDIvpK2dEDVgOdDhu-9" value="&lt;div&gt;&lt;br&gt;&lt;/div&gt;&lt;ul&gt;&lt;li&gt;&lt;font size=&quot;3&quot;&gt;Високата цена на услугата&amp;nbsp;&lt;/font&gt;&lt;/li&gt;&lt;li&gt;&lt;font size=&quot;3&quot;&gt;клиентът няма да може да избере начин на ликвидацията&amp;nbsp;&lt;/font&gt;&lt;/li&gt;&lt;li&gt;&lt;font size=&quot;3&quot;&gt;не може да се определи точен срок за изпълнение&amp;nbsp;&lt;/font&gt;&lt;/li&gt;&lt;/ul&gt;" style="text;strokeColor=none;fillColor=none;html=1;whiteSpace=wrap;verticalAlign=middle;overflow=hidden;" vertex="1" parent="1">
          <mxGeometry x="410" y="140" width="340" height="240" as="geometry" />
        </mxCell>
        <mxCell id="0aNdDIvpK2dEDVgOdDhu-10" value="&lt;ul&gt;&lt;li&gt;&lt;font style=&quot;font-size: 14px;&quot;&gt;Липса на конкуренция на пазара за приключването на индивидите&amp;nbsp;&lt;/font&gt;&lt;/li&gt;&lt;li&gt;Money back guaranteed при провалена поръчка&amp;nbsp;&lt;/li&gt;&lt;li&gt;Скалируемост на услугата за други индивиди (не от човешки вид)&lt;/li&gt;&lt;li&gt;&lt;br&gt;&lt;/li&gt;&lt;/ul&gt;" style="text;strokeColor=none;fillColor=none;html=1;whiteSpace=wrap;verticalAlign=middle;overflow=hidden;" vertex="1" parent="1">
          <mxGeometry x="60" y="460" width="320" height="150" as="geometry" />
        </mxCell>
        <mxCell id="0aNdDIvpK2dEDVgOdDhu-11" value="&lt;ul&gt;&lt;li&gt;&lt;font size=&quot;3&quot;&gt;Копелето може да е кораво и да не изгасне от първият път&amp;nbsp;&lt;/font&gt;&lt;/li&gt;&lt;li&gt;&lt;font size=&quot;3&quot;&gt;Много роднини на жертвите ще искат revenge&amp;nbsp;&lt;/font&gt;&lt;/li&gt;&lt;li style=&quot;border-color: var(--border-color);&quot;&gt;&lt;font style=&quot;border-color: var(--border-color); font-size: 14px;&quot;&gt;Нарушаване на етични и правни норми&amp;nbsp;&lt;/font&gt;&lt;/li&gt;&lt;li style=&quot;border-color: var(--border-color);&quot;&gt;&lt;font style=&quot;border-color: var(--border-color); font-size: 14px;&quot;&gt;липса на екзекутори&amp;nbsp;&lt;/font&gt;&lt;/li&gt;&lt;/ul&gt;" style="text;strokeColor=none;fillColor=none;html=1;whiteSpace=wrap;verticalAlign=middle;overflow=hidden;" vertex="1" parent="1">
          <mxGeometry x="420" y="430" width="300" height="180" as="geometry" />
        </mxCell>
      </root>
    </mxGraphModel>
  </diagram>
</mxfile>
